<svg width="40" height="35" viewBox="0 0 40 35" fill="none" xmlns="http://www.w3.org/2000/svg">
<rect width="40" height="35" fill="white"/>
<mask id="path-1-inside-1_1_12140" fill="white">
<path d="M32.025 18C32.5635 18 33.0038 18.4371 32.9635 18.9741C32.7961 21.2022 32.0565 23.3555 30.8091 25.2224C29.3806 27.3603 27.3503 29.0265 24.9749 30.0104C22.5994 30.9944 19.9856 31.2518 17.4638 30.7502C14.9421 30.2486 12.6257 29.0105 10.8076 27.1924C8.98953 25.3743 7.7514 23.0579 7.24979 20.5362C6.74818 18.0144 7.00563 15.4006 7.98957 13.0251C8.97351 10.6497 10.6397 8.61935 12.7776 7.1909C14.6445 5.94347 16.7978 5.20395 19.0259 5.03654C19.5629 4.99619 20 5.43652 20 5.975C20 6.51348 19.5626 6.94553 19.0262 6.99298C17.1843 7.15592 15.4071 7.77918 13.8609 8.81226C12.0438 10.0265 10.6275 11.7522 9.79113 13.7713C8.95478 15.7905 8.73596 18.0123 9.16232 20.1557C9.58869 22.2992 10.6411 24.2682 12.1865 25.8135C13.7318 27.3589 15.7008 28.4113 17.8443 28.8377C19.9877 29.264 22.2095 29.0452 24.2287 28.2089C26.2478 27.3725 27.9735 25.9562 29.1877 24.1391C30.2208 22.5929 30.8441 20.8157 31.007 18.9738C31.0545 18.4374 31.4865 18 32.025 18Z"/>
</mask>
<path d="M32.025 18C32.5635 18 33.0038 18.4371 32.9635 18.9741C32.7961 21.2022 32.0565 23.3555 30.8091 25.2224C29.3806 27.3603 27.3503 29.0265 24.9749 30.0104C22.5994 30.9944 19.9856 31.2518 17.4638 30.7502C14.9421 30.2486 12.6257 29.0105 10.8076 27.1924C8.98953 25.3743 7.7514 23.0579 7.24979 20.5362C6.74818 18.0144 7.00563 15.4006 7.98957 13.0251C8.97351 10.6497 10.6397 8.61935 12.7776 7.1909C14.6445 5.94347 16.7978 5.20395 19.0259 5.03654C19.5629 4.99619 20 5.43652 20 5.975C20 6.51348 19.5626 6.94553 19.0262 6.99298C17.1843 7.15592 15.4071 7.77918 13.8609 8.81226C12.0438 10.0265 10.6275 11.7522 9.79113 13.7713C8.95478 15.7905 8.73596 18.0123 9.16232 20.1557C9.58869 22.2992 10.6411 24.2682 12.1865 25.8135C13.7318 27.3589 15.7008 28.4113 17.8443 28.8377C19.9877 29.264 22.2095 29.0452 24.2287 28.2089C26.2478 27.3725 27.9735 25.9562 29.1877 24.1391C30.2208 22.5929 30.8441 20.8157 31.007 18.9738C31.0545 18.4374 31.4865 18 32.025 18Z" fill="#D9D9D9" stroke="black" stroke-width="2" stroke-linejoin="round" mask="url(#path-1-inside-1_1_12140)"/>
<path d="M21.3778 15.8892C21.3494 15.5767 21.223 15.3338 20.9986 15.1605C20.777 14.9844 20.4602 14.8963 20.0483 14.8963C19.7756 14.8963 19.5483 14.9318 19.3665 15.0028C19.1847 15.0739 19.0483 15.1719 18.9574 15.2969C18.8665 15.419 18.8196 15.5597 18.8168 15.7188C18.8111 15.8494 18.8366 15.9645 18.8935 16.0639C18.9531 16.1634 19.0384 16.2514 19.1491 16.3281C19.2628 16.402 19.3991 16.4673 19.5582 16.5241C19.7173 16.581 19.8963 16.6307 20.0952 16.6733L20.8452 16.8438C21.277 16.9375 21.6577 17.0625 21.9872 17.2188C22.3196 17.375 22.598 17.5611 22.8224 17.777C23.0497 17.9929 23.2216 18.2415 23.3381 18.5227C23.4545 18.804 23.5142 19.1193 23.517 19.4688C23.5142 20.0199 23.375 20.4929 23.0994 20.8878C22.8239 21.2827 22.4276 21.5852 21.9105 21.7955C21.3963 22.0057 20.7756 22.1108 20.0483 22.1108C19.3182 22.1108 18.6818 22.0014 18.1392 21.7827C17.5966 21.5639 17.1747 21.2315 16.8736 20.7855C16.5724 20.3395 16.4176 19.7756 16.4091 19.0938H18.429C18.446 19.375 18.5213 19.6094 18.6548 19.7969C18.7884 19.9844 18.9716 20.1264 19.2045 20.223C19.4403 20.3196 19.7131 20.3679 20.0227 20.3679C20.3068 20.3679 20.5483 20.3295 20.7472 20.2528C20.9489 20.1761 21.1037 20.0696 21.2116 19.9332C21.3196 19.7969 21.375 19.6406 21.3778 19.4645C21.375 19.2997 21.3239 19.1591 21.2244 19.0426C21.125 18.9233 20.9716 18.821 20.7642 18.7358C20.5597 18.6477 20.2983 18.5668 19.9801 18.4929L19.0682 18.2798C18.3125 18.1065 17.7173 17.8267 17.2827 17.4403C16.848 17.0511 16.6321 16.5256 16.6349 15.8636C16.6321 15.3239 16.777 14.8509 17.0696 14.4446C17.3622 14.0384 17.767 13.7216 18.2841 13.4943C18.8011 13.267 19.3906 13.1534 20.0526 13.1534C20.7287 13.1534 21.3153 13.2685 21.8125 13.4986C22.3125 13.7259 22.7003 14.0455 22.9759 14.4574C23.2514 14.8693 23.392 15.3466 23.3977 15.8892H21.3778Z" fill="black"/>
<path d="M33.6284 5.03562C33.6481 4.62188 33.3287 4.2705 32.915 4.2508L26.1726 3.92973C25.7588 3.91003 25.4075 4.22946 25.3878 4.64321C25.3681 5.05695 25.6875 5.40833 26.1012 5.42803L32.0945 5.71343L31.8091 11.7066C31.7894 12.1204 32.1088 12.4718 32.5225 12.4915C32.9363 12.5112 33.2877 12.1917 33.3074 11.778L33.6284 5.03562ZM24.5045 13.627L33.3838 5.5549L32.3748 4.44499L23.4955 12.5171L24.5045 13.627Z" fill="black"/>
</svg>
