<svg width="40" height="36" viewBox="0 0 40 36" fill="none" xmlns="http://www.w3.org/2000/svg">
<rect width="40" height="35" fill="white"/>
<path d="M34.892 12.3936C34.892 16.0191 31.953 18.958 28.3276 18.958C24.7022 18.958 21.7632 16.0191 21.7632 12.3936C21.7632 8.76821 24.7022 5.82922 28.3276 5.82922C31.953 5.82922 34.892 8.76821 34.892 12.3936ZM23.4043 12.3936C23.4043 15.1127 25.6085 17.3169 28.3276 17.3169C31.0467 17.3169 33.2509 15.1127 33.2509 12.3936C33.2509 9.67456 31.0467 7.47033 28.3276 7.47033C25.6085 7.47033 23.4043 9.67456 23.4043 12.3936Z" fill="black"/>
<path d="M7.29285 25.6055C6.72494 24.754 6.74324 23.6398 7.3388 22.8074L15.5451 11.3369C16.9642 9.35331 20.0943 10.4197 20.0072 12.8571L19.9307 14.9995C19.8693 16.7179 20.8859 18.2922 22.4774 18.9433L23.9487 19.5452C26.0843 20.4188 25.9524 23.4865 23.7497 24.1735L11.0949 28.1207C10.0522 28.446 8.91992 28.0452 8.31392 27.1366L7.29285 25.6055Z" stroke="black" stroke-width="1.6411" stroke-linejoin="round"/>
<line x1="11.2601" y1="17.5358" x2="17.8245" y2="26.2883" stroke="black" stroke-width="1.09407"/>
</svg>
