<svg width="32" height="32" viewBox="0 0 32 32" fill="none" xmlns="http://www.w3.org/2000/svg">
<path fill-rule="evenodd" clip-rule="evenodd" d="M9.17115 10.2212C9.92126 9.47127 10.9385 9.05001 11.9991 9.05001C13.0598 9.05001 14.077 9.47127 14.8271 10.2212L15.9991 11.3922L17.1711 10.2212C17.5401 9.83911 17.9815 9.53438 18.4695 9.32475C18.9575 9.11511 19.4824 9.00477 20.0135 9.00015C20.5447 8.99554 21.0714 9.09674 21.563 9.29787C22.0545 9.49899 22.5012 9.796 22.8767 10.1716C23.2523 10.5471 23.5493 10.9938 23.7504 11.4853C23.9516 11.9769 24.0528 12.5036 24.0481 13.0348C24.0435 13.5659 23.9332 14.0908 23.7236 14.5788C23.5139 15.0668 23.2092 15.5082 22.8271 15.8772L15.9991 22.7062L9.17115 15.8772C8.42126 15.127 8 14.1098 8 13.0492C8 11.9885 8.42126 10.9713 9.17115 10.2212Z" fill="#B0BABF"/>
</svg>
