<svg width="32" height="32" viewBox="0 0 32 32" fill="none" xmlns="http://www.w3.org/2000/svg">
<path fill-rule="evenodd" clip-rule="evenodd" d="M12 8C11.4696 8 10.9609 8.21071 10.5858 8.58579C10.2107 8.96086 10 9.46957 10 10V22C10 22.5304 10.2107 23.0391 10.5858 23.4142C10.9609 23.7893 11.4696 24 12 24H20C20.5304 24 21.0391 23.7893 21.4142 23.4142C21.7893 23.0391 22 22.5304 22 22V13.414C21.9999 12.8836 21.7891 12.375 21.414 12L18 8.586C17.625 8.2109 17.1164 8.00011 16.586 8H12ZM17 14C17 13.7348 16.8946 13.4804 16.7071 13.2929C16.5196 13.1054 16.2652 13 16 13C15.7348 13 15.4804 13.1054 15.2929 13.2929C15.1054 13.4804 15 13.7348 15 14V16H13C12.7348 16 12.4804 16.1054 12.2929 16.2929C12.1054 16.4804 12 16.7348 12 17C12 17.2652 12.1054 17.5196 12.2929 17.7071C12.4804 17.8946 12.7348 18 13 18H15V20C15 20.2652 15.1054 20.5196 15.2929 20.7071C15.4804 20.8946 15.7348 21 16 21C16.2652 21 16.5196 20.8946 16.7071 20.7071C16.8946 20.5196 17 20.2652 17 20V18H19C19.2652 18 19.5196 17.8946 19.7071 17.7071C19.8946 17.5196 20 17.2652 20 17C20 16.7348 19.8946 16.4804 19.7071 16.2929C19.5196 16.1054 19.2652 16 19 16H17V14Z" fill="#B0BABF"/>
</svg>
